<svg xmlns="http://www.w3.org/2000/svg" width="70" height="151" viewBox="0 0 70 151"><g transform="translate(942.539 -622) rotate(90)"><circle cx="4" cy="4" r="4" transform="translate(622 872.539)" fill="#fff" opacity="0.44"/><circle cx="4" cy="4" r="4" transform="translate(622 893.539)" fill="#fff" opacity="0.44"/><circle cx="4" cy="4" r="4" transform="translate(622 913.539)" fill="#fff" opacity="0.44"/><circle cx="4" cy="4" r="4" transform="translate(622 934.539)" fill="#fff" opacity="0.44"/><circle cx="4" cy="4" r="4" transform="translate(704 872.539)" fill="#fff" opacity="0.44"/><circle cx="4" cy="4" r="4" transform="translate(704 893.539)" fill="#fff" opacity="0.44"/><circle cx="4" cy="4" r="4" transform="translate(704 913.539)" fill="#fff" opacity="0.44"/><circle cx="4" cy="4" r="4" transform="translate(704 934.539)" fill="#fff" opacity="0.44"/><circle cx="4" cy="4" r="4" transform="translate(663 872.539)" fill="#fff" opacity="0.44"/><circle cx="4" cy="4" r="4" transform="translate(663 893.539)" fill="#fff" opacity="0.44"/><circle cx="4" cy="4" r="4" transform="translate(663 913.539)" fill="#fff" opacity="0.44"/><circle cx="4" cy="4" r="4" transform="translate(663 934.539)" fill="#fff" opacity="0.44"/><circle cx="4" cy="4" r="4" transform="translate(745 872.539)" fill="#fff" opacity="0.44"/><circle cx="4" cy="4" r="4" transform="translate(745 893.539)" fill="#fff" opacity="0.44"/><circle cx="4" cy="4" r="4" transform="translate(745 913.539)" fill="#fff" opacity="0.44"/><circle cx="4" cy="4" r="4" transform="translate(745 934.539)" fill="#fff" opacity="0.44"/><circle cx="4" cy="4" r="4" transform="translate(643 872.539)" fill="#fff" opacity="0.44"/><circle cx="4" cy="4" r="4" transform="translate(643 893.539)" fill="#fff" opacity="0.44"/><circle cx="4" cy="4" r="4" transform="translate(643 913.539)" fill="#fff" opacity="0.44"/><circle cx="4" cy="4" r="4" transform="translate(643 934.539)" fill="#fff" opacity="0.44"/><circle cx="4" cy="4" r="4" transform="translate(725 872.539)" fill="#fff" opacity="0.44"/><circle cx="4" cy="4" r="4" transform="translate(725 893.539)" fill="#fff" opacity="0.44"/><circle cx="4" cy="4" r="4" transform="translate(725 913.539)" fill="#fff" opacity="0.44"/><circle cx="4" cy="4" r="4" transform="translate(725 934.539)" fill="#fff" opacity="0.44"/><circle cx="4" cy="4" r="4" transform="translate(684 872.539)" fill="#fff" opacity="0.44"/><circle cx="4" cy="4" r="4" transform="translate(684 893.539)" fill="#fff" opacity="0.44"/><circle cx="4" cy="4" r="4" transform="translate(684 913.539)" fill="#fff" opacity="0.44"/><circle cx="4" cy="4" r="4" transform="translate(684 934.539)" fill="#fff" opacity="0.44"/><ellipse cx="3.5" cy="4" rx="3.5" ry="4" transform="translate(766 872.539)" fill="#fff" opacity="0.44"/><ellipse cx="3.5" cy="4" rx="3.5" ry="4" transform="translate(766 893.539)" fill="#fff" opacity="0.44"/><ellipse cx="3.5" cy="4" rx="3.5" ry="4" transform="translate(766 913.539)" fill="#fff" opacity="0.44"/><ellipse cx="3.5" cy="4" rx="3.5" ry="4" transform="translate(766 934.539)" fill="#fff" opacity="0.44"/></g></svg>