<svg xmlns="http://www.w3.org/2000/svg" xmlns:xlink="http://www.w3.org/1999/xlink" width="50" height="50" viewBox="0 0 50 50"><defs><clipPath id="a"><circle cx="25" cy="25" r="25" transform="translate(1262.406 374.406)" fill="#fff" stroke="#707070" stroke-width="1" opacity="0.71"/></clipPath><clipPath id="b"><circle cx="56.228" cy="56.228" r="56.228" transform="translate(112.456 0) rotate(90)" fill="#455065"/></clipPath></defs><g transform="translate(-1262.406 -374.406)" opacity="0.75" clip-path="url(#a)"><g transform="translate(1231.512 343.512)" clip-path="url(#b)"><g transform="translate(112.478 -12.428) rotate(90)"><path d="M15.491,111.924a5.233,5.233,0,0,1-2.5-1.6,3.868,3.868,0,0,1-.886-2.511,3.276,3.276,0,0,1,.886-2.352,4.314,4.314,0,0,1,2.495-1.179,11.782,11.782,0,0,1,3.728.093,14.733,14.733,0,0,1,4.359,1.275h0a4.354,4.354,0,0,1,2.22,2.051q-1.507-.054-3.015-.157a3.452,3.452,0,0,0-1.355-.978,7.768,7.768,0,0,0-2.19-.586,6.649,6.649,0,0,0-2.2.025,2.71,2.71,0,0,0-1.487.768,2.054,2.054,0,0,0-.53,1.446,2.442,2.442,0,0,0,1.211,2.16,6.455,6.455,0,0,0,3.31.813,7.044,7.044,0,0,0,2.658-.375,2.273,2.273,0,0,0,1.437-1.206q-2.435-.092-4.868-.268V108.2q3.636.351,7.272.446v1.375a2.868,2.868,0,0,1-1.192,1.218,7.688,7.688,0,0,1-2.322.857,15.172,15.172,0,0,1-3.289.328q-.144,0-.289,0A12.024,12.024,0,0,1,15.491,111.924Zm112.764-.753a8.246,8.246,0,0,1-2.5-3.671,15.249,15.249,0,0,1-.886-5.347,12.491,12.491,0,0,1,.886-4.992,4.988,4.988,0,0,1,2.495-2.744,4.735,4.735,0,0,1,3.729.142,10.579,10.579,0,0,1,4.358,3.326h0a10.873,10.873,0,0,1,2.221,4.586q-1.508-.581-3.015-1.084a6.279,6.279,0,0,0-1.355-2.224,5.252,5.252,0,0,0-2.189-1.438,2.9,2.9,0,0,0-2.2.022,3.076,3.076,0,0,0-1.487,1.7,8.124,8.124,0,0,0-.53,3.145,8.476,8.476,0,0,0,1.211,4.808,4.171,4.171,0,0,0,3.311,1.9,3.606,3.606,0,0,0,2.658-.826,4.254,4.254,0,0,0,1.437-2.6q-2.435-.535-4.868-.953v-2.537q3.636.825,7.272,1.992v2.77a6.386,6.386,0,0,1-1.192,2.5,7.226,7.226,0,0,1-2.322,1.954,6.767,6.767,0,0,1-3.289.824l-.139,0A5.783,5.783,0,0,1,128.256,111.171Zm-52.646,1.254a7.32,7.32,0,0,1-3.737-.975,6.616,6.616,0,0,1-2.505-2.536,7.365,7.365,0,0,1-.886-3.666,8.932,8.932,0,0,1,.886-3.927,9.92,9.92,0,0,1,2.495-3.244,9.388,9.388,0,0,1,3.729-1.988,4.762,4.762,0,0,1,6.579,4.079q-1.507.263-3.015.539A2.808,2.808,0,0,0,77.8,99.172,3.19,3.19,0,0,0,75.61,99a5.068,5.068,0,0,0-2.2,1.11,5.578,5.578,0,0,0-1.487,2.03,6.584,6.584,0,0,0-.53,2.677,4.89,4.89,0,0,0,1.211,3.565,4.1,4.1,0,0,0,3.31,1.172,3.82,3.82,0,0,0,2.659-1.222,5.816,5.816,0,0,0,1.434-3.166q-2.433.277-4.868.571v-2.279q3.636-.576,7.272-1.107v3.433a9.973,9.973,0,0,1-1.191,3.351,6.776,6.776,0,0,1-2.322,2.422,6.1,6.1,0,0,1-3.138.869Zm-28.191,0a13.462,13.462,0,0,1-3.737-.486,6.072,6.072,0,0,1-2.505-1.3,2.616,2.616,0,0,1-.886-1.986,3.494,3.494,0,0,1,.886-2.246,7.948,7.948,0,0,1,2.5-1.921,13.494,13.494,0,0,1,3.727-1.262,8.659,8.659,0,0,1,4.359.043,3.257,3.257,0,0,1,2.221,2.146q-1.508.251-3.015.482a2.275,2.275,0,0,0-1.354-.858,5.3,5.3,0,0,0-2.19-.032,7.283,7.283,0,0,0-2.2.7,4.321,4.321,0,0,0-1.488,1.2,2.474,2.474,0,0,0-.53,1.521,2.058,2.058,0,0,0,1.211,1.925,6.535,6.535,0,0,0,3.31.586,5.59,5.59,0,0,0,2.659-.692,2.988,2.988,0,0,0,1.437-1.8q-2.435.241-4.868.446v-1.275q3.636-.4,7.271-.913v2.008a4.363,4.363,0,0,1-1.191,1.921,5.925,5.925,0,0,1-2.322,1.33,10.508,10.508,0,0,1-3.063.456Zm56.381,0a5.558,5.558,0,0,1-3.734-1.415,9.044,9.044,0,0,1-2.505-3.828,17.377,17.377,0,0,1,0-10.958,9.808,9.808,0,0,1,2.495-3.925,6.017,6.017,0,0,1,3.728-1.661,5.194,5.194,0,0,1,4.357,1.654,9.2,9.2,0,0,1,2.22,5.086q-1.507-.012-3.015.018a4.67,4.67,0,0,0-1.354-2.244,2.932,2.932,0,0,0-2.19-.733,3.462,3.462,0,0,0-2.2.974,5.855,5.855,0,0,0-1.487,2.461,11.38,11.38,0,0,0-.53,3.643,9.417,9.417,0,0,0,1.211,5.164,3.7,3.7,0,0,0,3.31,1.849,3.346,3.346,0,0,0,2.659-1.441,7.931,7.931,0,0,0,1.434-3.9q-2.433.018-4.868.1v-3.062c2.423-.111,4.848-.161,7.272-.138v4.178a13.826,13.826,0,0,1-1.191,4.035,8.3,8.3,0,0,1-2.322,3,5.145,5.145,0,0,1-3.224,1.136Zm-75.61-.051v-7.167q2.739.043,5.479-.115a8.466,8.466,0,0,1,3.819.423,1.887,1.887,0,0,1,1.314,1.73A1.861,1.861,0,0,1,37.9,108.8a6.054,6.054,0,0,1-2.618.87c1.2.917,2.391,1.8,3.586,2.7l-3.177,0c-1.12-.829-2.241-1.67-3.361-2.558q-.631.011-1.262.017v2.544Zm5.236-5.9q-1.179.054-2.362.077v2.3q1.179-.015,2.362-.05,2.465-.077,2.464-1.253a.914.914,0,0,0-.6-.853,4.157,4.157,0,0,0-1.864-.223ZM7.5,112.335a43.387,43.387,0,0,1-3.361-4.749q-.632-.122-1.263-.252v4.983L0,112.3V97.921a60.541,60.541,0,0,0,5.479,2.647,11.733,11.733,0,0,1,3.82,2.379,3.846,3.846,0,0,1,1.314,2.7,1.97,1.97,0,0,1-.906,1.742,4.624,4.624,0,0,1-2.618.618,37.475,37.475,0,0,0,3.585,4.335ZM2.872,105.56q1.182.321,2.363.609c1.642.382,2.465,0,2.465-1.106a2.063,2.063,0,0,0-.6-1.44,4.706,4.706,0,0,0-1.863-1.108q-1.182-.43-2.363-.914Zm53.51-4.211q2.741-.669,5.479-1.395c1.67-.442,2.944-.42,3.82.128a3.01,3.01,0,0,1,1.314,2.755,4.363,4.363,0,0,1-.906,2.744,5.083,5.083,0,0,1-2.618,1.684c1.2,1.556,2.391,3.228,3.585,5.044l-3.177.007c-1.12-1.644-2.241-3.165-3.361-4.59l-1.263.14v4.462l-2.872.007Zm5.235.785q-1.182.265-2.363.523v3.605q1.182-.171,2.363-.348,2.465-.358,2.465-2.342a1.479,1.479,0,0,0-.6-1.339,1.636,1.636,0,0,0-.9-.223A4.422,4.422,0,0,0,61.617,102.135Zm22.956-8.159q2.741-.64,5.479-1.194a3.8,3.8,0,0,1,3.819.937,6.122,6.122,0,0,1,1.314,4.242,7.976,7.976,0,0,1-.906,3.918,4.909,4.909,0,0,1-2.618,2.279q1.792,3.834,3.585,8.086l-3.178.005q-1.68-4.022-3.361-7.64-.632.056-1.263.116v7.535l-2.872.006ZM89.807,96q-1.182.2-2.363.424v5.69q1.179-.147,2.363-.282c1.643-.181,2.465-1.272,2.465-3.261a3.128,3.128,0,0,0-.6-2.1,1.624,1.624,0,0,0-1.291-.521A3.35,3.35,0,0,0,89.807,96ZM120.26,112.24c-1.12-2.817-2.241-5.668-3.361-8.5q-.632-.032-1.263-.055v8.553l-2.872,0V90.7c1.827.085,3.652.244,5.479.487a5.3,5.3,0,0,1,3.82,2.3,8.013,8.013,0,0,1,1.313,4.65,6.841,6.841,0,0,1-.906,3.687,4.112,4.112,0,0,1-2.618,1.873c1.2,2.88,2.391,5.751,3.585,8.546Zm-4.624-11.5q1.182.061,2.363.148c1.643.119,2.464-.843,2.465-2.9a4.169,4.169,0,0,0-.6-2.364A2.438,2.438,0,0,0,118,94.576q-1.182-.131-2.363-.221Zm-87.445,3.353V94.52a43.39,43.39,0,0,0,5.479-.2,7.013,7.013,0,0,1,3.819.385A2.235,2.235,0,0,1,38.8,96.816a2.831,2.831,0,0,1-.906,2.067,5.553,5.553,0,0,1-2.618,1.328c1.2,1.14,2.391,2.215,3.586,3.256q-1.589.2-3.179.344c-1.12-1.033-2.241-2.113-3.361-3.268q-.631.035-1.262.055v3.48q-.872.022-1.745.022Q28.755,104.1,28.191,104.092Zm5.235-7.981q-1.179.105-2.362.151V99.3q1.179-.041,2.362-.135c1.643-.135,2.464-.741,2.464-1.759a1.148,1.148,0,0,0-.6-1.073,2.527,2.527,0,0,0-1.242-.247Q33.76,96.081,33.426,96.111Zm-14.2,7.231a9.9,9.9,0,0,1-3.738-1.4,7.6,7.6,0,0,1-2.5-2.576,6.3,6.3,0,0,1-.887-3.2,3.566,3.566,0,0,1,.887-2.578,3.68,3.68,0,0,1,2.495-1.009,11.32,11.32,0,0,1,3.729.505,14.142,14.142,0,0,1,4.358,1.883h0a5.336,5.336,0,0,1,2.22,2.748q-1.507-.12-3.015-.351a4.024,4.024,0,0,0-1.355-1.35,7.386,7.386,0,0,0-2.19-.924,5.867,5.867,0,0,0-2.2-.211,2.26,2.26,0,0,0-1.487.728,2.463,2.463,0,0,0-.53,1.667,3.959,3.959,0,0,0,1.211,2.893,6.16,6.16,0,0,0,3.31,1.6,4.8,4.8,0,0,0,2.658-.165,2.289,2.289,0,0,0,1.437-1.481,44.866,44.866,0,0,1-4.868-.843v-1.44a43.058,43.058,0,0,0,7.272,1.135v1.834a3.348,3.348,0,0,1-1.192,1.585,5.5,5.5,0,0,1-2.322.965,9.165,9.165,0,0,1-3.289-.019ZM43.681,102.2a4.488,4.488,0,0,1-2.505-1.273,3.43,3.43,0,0,1-.886-2.437,5.458,5.458,0,0,1,.886-2.917,9.4,9.4,0,0,1,2.5-2.6,13.712,13.712,0,0,1,3.727-1.9,8.088,8.088,0,0,1,4.36-.512,2.847,2.847,0,0,1,2.221,2.066q-1.508.557-3.015,1.074a1.9,1.9,0,0,0-1.354-.785,4.812,4.812,0,0,0-2.19.263,7.485,7.485,0,0,0-2.2,1.112,5.407,5.407,0,0,0-1.488,1.635A3.858,3.858,0,0,0,43.2,97.87a2.262,2.262,0,0,0,1.211,2.222,4.825,4.825,0,0,0,3.309.135,6.007,6.007,0,0,0,2.659-1.356,4.536,4.536,0,0,0,1.436-2.379q-2.435.759-4.868,1.409V96.367c2.423-.685,4.847-1.472,7.271-2.329V96.3a6.792,6.792,0,0,1-1.191,2.446,8.268,8.268,0,0,1-2.322,2.073,10.216,10.216,0,0,1-3.29,1.267,9.415,9.415,0,0,1-3.737.112ZM7.5,99.84q-1.68-2.964-3.361-6.548-.632-.4-1.263-.824v5.174Q1.436,96.878,0,96.008V81.626a56.757,56.757,0,0,0,5.479,4.686A17.8,17.8,0,0,1,9.3,89.926a5.8,5.8,0,0,1,1.314,3.381,1.755,1.755,0,0,1-.906,1.753,3.419,3.419,0,0,1-2.618-.152q1.793,3.4,3.585,6.152Q9.085,100.507,7.5,99.84ZM2.872,90.628q1.182.847,2.363,1.6c1.642,1.033,2.465.854,2.465-.367A3.117,3.117,0,0,0,7.1,90.1,7.432,7.432,0,0,0,5.235,88.32q-1.182-.847-2.363-1.8ZM56.382,87.7c1.827-.79,3.653-1.619,5.479-2.47,1.67-.781,2.944-1.007,3.82-.632a2.443,2.443,0,0,1,1.314,2.518,5.52,5.52,0,0,1-.906,3.015,7.379,7.379,0,0,1-2.618,2.4c1.2,1.317,2.391,2.7,3.585,4.19q-1.588.481-3.177.954c-1.12-1.377-2.241-2.675-3.361-3.921q-.632.23-1.263.455v4.811q-1.434.408-2.872.8Zm5.235-.122q-1.182.522-2.363,1.029v3.877q1.182-.451,2.363-.916c1.644-.641,2.465-1.652,2.465-3.019,0-.651-.2-1.072-.6-1.257a1.1,1.1,0,0,0-.464-.091A3.662,3.662,0,0,0,61.617,87.574Zm10.256,6.849a4.263,4.263,0,0,1-2.505-1.8,6.114,6.114,0,0,1-.886-3.44,10.376,10.376,0,0,1,.886-4.154,13.118,13.118,0,0,1,2.495-3.781,12.272,12.272,0,0,1,3.728-2.744c1.753-.83,3.2-1.039,4.36-.592a3.749,3.749,0,0,1,2.22,3q-1.507.587-3.015,1.2A1.976,1.976,0,0,0,77.8,80.975a3.384,3.384,0,0,0-2.189.336,6.809,6.809,0,0,0-2.2,1.585,7.491,7.491,0,0,0-1.487,2.342,7.364,7.364,0,0,0-.53,2.773A3.7,3.7,0,0,0,72.606,91.2a3.524,3.524,0,0,0,3.31.216,5.562,5.562,0,0,0,2.659-1.9,7.254,7.254,0,0,0,1.434-3.379q-2.433.874-4.868,1.8V85.73c2.422-.979,4.848-1.931,7.272-2.825v3.215a11.579,11.579,0,0,1-1.191,3.451A10.092,10.092,0,0,1,78.9,92.495a8.655,8.655,0,0,1-3.29,1.777,6.747,6.747,0,0,1-3.737.151Zm63.411-1.047a7.953,7.953,0,0,1-3.289-.762,10.874,10.874,0,0,1-3.738-2.619,12.187,12.187,0,0,1-2.5-4.15,14.705,14.705,0,0,1-.886-5.105,9.055,9.055,0,0,1,.886-4.321,3.274,3.274,0,0,1,2.495-1.859,5.494,5.494,0,0,1,3.729,1.251,15.909,15.909,0,0,1,4.356,4.763,16.36,16.36,0,0,1,2.221,5.482q-1.508-1.294-3.015-2.42a9.639,9.639,0,0,0-1.355-2.685,8.3,8.3,0,0,0-2.189-2.163,3.39,3.39,0,0,0-2.2-.7,1.91,1.91,0,0,0-1.487,1.116,5.884,5.884,0,0,0-.53,2.735,9.359,9.359,0,0,0,1.211,4.823A7.609,7.609,0,0,0,132.3,89.8a3.569,3.569,0,0,0,2.658.4,2.189,2.189,0,0,0,1.437-1.826,52.108,52.108,0,0,0-4.868-3V83a53.82,53.82,0,0,1,7.272,5.086v2.77a3.192,3.192,0,0,1-1.192,1.837,3.894,3.894,0,0,1-2.208.687ZM28.191,93.085V81.11a35.575,35.575,0,0,0,5.479-.249,5.911,5.911,0,0,1,3.819.459A2.79,2.79,0,0,1,38.8,83.873a3.95,3.95,0,0,1-.907,2.546,5.469,5.469,0,0,1-2.618,1.7c1.2,1.4,2.391,2.7,3.586,3.939q-1.589.333-3.179.568c-1.12-1.269-2.241-2.614-3.361-4.052q-.631.05-1.262.079v4.414q-.86.037-1.722.037Q28.766,93.1,28.191,93.085Zm5.235-10.024q-1.179.133-2.362.191v3.765q1.179-.055,2.362-.184c1.643-.186,2.464-.953,2.464-2.2a1.48,1.48,0,0,0-.6-1.312,2.132,2.132,0,0,0-1.225-.3A5.727,5.727,0,0,0,33.426,83.061Zm-14.2,8.754a9.591,9.591,0,0,1-3.738-2.036,10.18,10.18,0,0,1-2.5-3.32,8.838,8.838,0,0,1-.886-3.79,4.231,4.231,0,0,1,.886-2.9A3.409,3.409,0,0,1,15.481,78.7a10.143,10.143,0,0,1,3.729.655,12.939,12.939,0,0,1,4.358,2.3,6.471,6.471,0,0,1,2.22,3.388q-1.507-.159-3.015-.462a4.622,4.622,0,0,0-1.355-1.668,6.888,6.888,0,0,0-2.19-1.151,5.126,5.126,0,0,0-2.2-.3,2.092,2.092,0,0,0-1.487.8,3.125,3.125,0,0,0-.53,1.934,5.583,5.583,0,0,0,1.211,3.526,6.321,6.321,0,0,0,3.31,2.176,3.772,3.772,0,0,0,2.658-.083,2.556,2.556,0,0,0,1.437-1.8,33.14,33.14,0,0,1-4.868-1.2V85.067a32.658,32.658,0,0,0,7.272,1.545V88.9a4.178,4.178,0,0,1-1.192,1.976,4.657,4.657,0,0,1-2.322,1.144,6.957,6.957,0,0,1-3.289-.21ZM84.573,74.642c1.827-.756,3.652-1.466,5.479-2.114,1.67-.593,2.943-.51,3.819.225a4.49,4.49,0,0,1,1.314,3.619,7.425,7.425,0,0,1-.906,3.677,6.344,6.344,0,0,1-2.618,2.532q1.792,3.147,3.585,6.679-1.589.281-3.178.609-1.68-3.322-3.361-6.283-.632.186-1.263.378v6.944q-1.434.347-2.872.72Zm5.235.859q-1.182.4-2.363.833v5.23q1.179-.385,2.363-.741A3.218,3.218,0,0,0,92.272,77.4a2.289,2.289,0,0,0-.6-1.8,1.268,1.268,0,0,0-.861-.286A3.18,3.18,0,0,0,89.807,75.5ZM43.681,90.187a3.85,3.85,0,0,1-2.505-1.39,4.581,4.581,0,0,1-.886-2.932,7.677,7.677,0,0,1,.886-3.543,10.611,10.611,0,0,1,2.5-3.136A13.249,13.249,0,0,1,47.4,76.9a7.513,7.513,0,0,1,4.36-.73,2.813,2.813,0,0,1,2.221,2.175q-1.508.733-3.015,1.414a1.767,1.767,0,0,0-1.354-.82,4.37,4.37,0,0,0-2.19.4,7.392,7.392,0,0,0-2.2,1.369,6.3,6.3,0,0,0-1.488,1.976,5.387,5.387,0,0,0-.529,2.337,2.677,2.677,0,0,0,1.211,2.593,3.992,3.992,0,0,0,3.309-.1A6.552,6.552,0,0,0,50.382,85.7a6.04,6.04,0,0,0,1.436-2.843c-1.623.718-3.246,1.388-4.868,2V83.058c2.423-.933,4.847-2,7.271-3.169V82.4a9.14,9.14,0,0,1-1.191,2.869,10.787,10.787,0,0,1-5.612,4.457,7.675,7.675,0,0,1-3.737.463Zm76.579-1.315c-1.12-2.748-2.241-5.469-3.361-8.13q-.632-.1-1.263-.178v7.65q-1.434-.144-2.872-.218V68.851a37.416,37.416,0,0,1,5.479.863,6.2,6.2,0,0,1,3.82,2.614,7.8,7.8,0,0,1,1.313,4.438,4.869,4.869,0,0,1-.906,3.142,3.413,3.413,0,0,1-2.618,1.207c1.2,2.78,2.391,5.61,3.585,8.447Q121.849,89.166,120.26,88.872Zm-4.624-10.933q1.182.159,2.363.386c1.643.319,2.464-.389,2.465-2.241a3.864,3.864,0,0,0-.6-2.209A2.887,2.887,0,0,0,118,72.694q-1.182-.255-2.363-.434Zm-15.574,9.482a6.8,6.8,0,0,1-2.505-3.105,11.989,11.989,0,0,1-.886-4.8,13.838,13.838,0,0,1,.886-5.04,9.971,9.971,0,0,1,2.495-3.79,6.658,6.658,0,0,1,3.729-1.782,5.173,5.173,0,0,1,4.359,1.287,7.65,7.65,0,0,1,2.22,4.5q-1.507-.029-3.015.039a3.87,3.87,0,0,0-1.354-1.941,2.969,2.969,0,0,0-2.19-.532,3.876,3.876,0,0,0-2.2,1.037,5.824,5.824,0,0,0-1.487,2.341,9.657,9.657,0,0,0-.53,3.315,7.115,7.115,0,0,0,1.211,4.487,3.562,3.562,0,0,0,3.31,1.352,3.818,3.818,0,0,0,2.659-1.434A6.865,6.865,0,0,0,108.2,79.84q-2.433.059-4.868.328V77.439a52.01,52.01,0,0,1,7.272-.353V80.8a11.335,11.335,0,0,1-1.191,3.586,8.047,8.047,0,0,1-2.322,2.724,6.221,6.221,0,0,1-3.29,1.2,5.792,5.792,0,0,1-3.737-.893ZM7.5,86.052Q5.815,82.4,4.135,78.228q-.632-.57-1.263-1.175v5.361Q1.436,81.149,0,79.711V65.33a61.665,61.665,0,0,0,5.479,5.735A21.2,21.2,0,0,1,9.3,75.372a7.429,7.429,0,0,1,1.314,3.9c0,.991-.3,1.617-.906,1.871a3.109,3.109,0,0,1-2.618-.57q1.793,4.027,3.585,7.5Q9.085,87.156,7.5,86.052ZM2.872,75.146q1.182,1.16,2.363,2.192c1.642,1.421,2.465,1.341,2.465,0a3.985,3.985,0,0,0-.6-2,9.411,9.411,0,0,0-1.863-2.166Q4.053,72.1,2.872,70.892Zm53.51-2.388c1.827-.966,3.653-1.981,5.479-3.023,1.67-.954,2.944-1.3,3.82-1.008s1.314,1.1,1.314,2.417a6.366,6.366,0,0,1-.906,3.194,9.408,9.408,0,0,1-2.618,2.847c1.2,1.2,2.391,2.422,3.585,3.7q-1.588.793-3.177,1.577c-1.12-1.224-2.241-2.409-3.361-3.583q-.632.328-1.263.65v5.159q-1.434.675-2.872,1.319Zm5.235-.534q-1.182.662-2.363,1.307V77.68q1.182-.617,2.363-1.254c1.644-.882,2.465-2.04,2.465-3.454q0-1.01-.6-1.235a.922.922,0,0,0-.324-.053A3.453,3.453,0,0,0,61.617,72.225ZM28.191,79.355V64.976a35.051,35.051,0,0,0,5.479-.251,5.124,5.124,0,0,1,3.819.646A3.579,3.579,0,0,1,38.8,68.412,5.132,5.132,0,0,1,37.9,71.4a5.441,5.441,0,0,1-2.618,1.98c1.2,1.687,2.391,3.266,3.586,4.749q-1.588.4-3.178.678-1.68-2.308-3.361-4.911c-.42.038-.842.066-1.262.088v5.349q-.861.044-1.724.044Q28.765,79.375,28.191,79.355Zm5.235-12.03q-1.179.139-2.362.2v4.494q1.179-.06,2.362-.2a2.435,2.435,0,0,0,2.464-2.582,1.931,1.931,0,0,0-.6-1.568,1.959,1.959,0,0,0-1.3-.378A4.911,4.911,0,0,0,33.426,67.325Zm-14.2,10.513a9.415,9.415,0,0,1-3.738-2.409,12.109,12.109,0,0,1-2.5-3.835A11.163,11.163,0,0,1,12.1,67.3,5.386,5.386,0,0,1,12.987,64a3.488,3.488,0,0,1,2.495-1.353,8.483,8.483,0,0,1,3.729.542A11.176,11.176,0,0,1,23.569,65.7h0a7.632,7.632,0,0,1,2.22,3.973,30.481,30.481,0,0,1-3.015-.491,5.113,5.113,0,0,0-1.355-1.931,6.124,6.124,0,0,0-2.19-1.266,4.341,4.341,0,0,0-2.2-.255,2.167,2.167,0,0,0-1.487.993,4.1,4.1,0,0,0-.53,2.245,7.091,7.091,0,0,0,1.211,4.062,6.358,6.358,0,0,0,3.31,2.523,3.2,3.2,0,0,0,2.658-.127,3.062,3.062,0,0,0,1.437-2.18,30.624,30.624,0,0,1-4.868-1.326V69.872a30.5,30.5,0,0,0,7.272,1.673V74.3a5.378,5.378,0,0,1-1.192,2.391,4.431,4.431,0,0,1-2.322,1.395,5.8,5.8,0,0,1-3.289-.244Zm52.643-.188a3.273,3.273,0,0,1-2.505-1.314,5.416,5.416,0,0,1-.886-3.3,11.28,11.28,0,0,1,.886-4.291,14.947,14.947,0,0,1,2.495-4.064,14.269,14.269,0,0,1,3.729-3.124q2.626-1.52,4.358-1.124a2.971,2.971,0,0,1,2.22,2.5q-1.507.772-3.015,1.585a1.625,1.625,0,0,0-1.355-.889,3.821,3.821,0,0,0-2.19.628,8.157,8.157,0,0,0-2.2,1.839,8.684,8.684,0,0,0-1.487,2.5,7.77,7.77,0,0,0-.53,2.815c0,1.526.4,2.5,1.211,2.932s1.912.3,3.31-.407a7.388,7.388,0,0,0,2.659-2.316,8.164,8.164,0,0,0,1.434-3.451c-1.622.826-3.245,1.682-4.868,2.552V68.588c2.422-1.331,4.848-2.628,7.272-3.843v3a12.39,12.39,0,0,1-1.191,3.441,13.071,13.071,0,0,1-2.322,3.2,11.784,11.784,0,0,1-3.29,2.364,7.816,7.816,0,0,1-3.371.913Q72.052,77.664,71.872,77.65Zm63.411-1.833A12.781,12.781,0,0,1,131.994,74a18.782,18.782,0,0,1-3.737-3.49,15.625,15.625,0,0,1-2.5-4.355,13.513,13.513,0,0,1-.886-4.777,6.666,6.666,0,0,1,.886-3.735,2.648,2.648,0,0,1,2.493-1.244,6.746,6.746,0,0,1,3.729,1.867,19.62,19.62,0,0,1,4.358,5.477h0a19.731,19.731,0,0,1,2.221,5.958q-1.508-1.7-3.015-3.187a11.857,11.857,0,0,0-1.355-2.914,10.862,10.862,0,0,0-2.189-2.548,4.3,4.3,0,0,0-2.2-1.125,1.5,1.5,0,0,0-1.487.716,4.366,4.366,0,0,0-.53,2.386,9.542,9.542,0,0,0,1.211,4.694,11.844,11.844,0,0,0,3.311,3.729,4.869,4.869,0,0,0,2.658,1.211c.74.013,1.219-.4,1.437-1.311a53.312,53.312,0,0,0-4.868-4.26V64.869a57.241,57.241,0,0,1,7.272,6.919v2.77a1.953,1.953,0,0,1-1.192,1.414,2.173,2.173,0,0,1-.793.136A4.975,4.975,0,0,1,135.283,75.816Zm-91.6.1a3.722,3.722,0,0,1-2.505-1.647,6.163,6.163,0,0,1-.887-3.47,10.029,10.029,0,0,1,.887-4.127,11.228,11.228,0,0,1,2.5-3.534A11.845,11.845,0,0,1,47.4,60.709a6.7,6.7,0,0,1,4.359-.616,3.123,3.123,0,0,1,2.221,2.471q-1.508.778-3.015,1.5a1.84,1.84,0,0,0-1.354-.96,3.882,3.882,0,0,0-2.19.363,6.87,6.87,0,0,0-3.687,3.7,6.968,6.968,0,0,0-.529,2.7q0,2.26,1.211,3.037a3.483,3.483,0,0,0,3.31-.1,6.714,6.714,0,0,0,2.659-2.079,7.2,7.2,0,0,0,1.437-3.192q-2.435,1.2-4.868,2.215V67.7c2.422-1.01,4.847-2.17,7.271-3.431v2.76a11,11,0,0,1-1.191,3.186A12.247,12.247,0,0,1,50.709,73.2a10.782,10.782,0,0,1-3.29,2.147,7.474,7.474,0,0,1-2.854.647A4.769,4.769,0,0,1,43.682,75.913ZM7.5,70.974c-1.12-2.73-2.241-5.6-3.361-8.58q-.632-.633-1.263-1.307v5.55Q1.436,65.13,0,63.415V49.034a62.191,62.191,0,0,0,5.479,5.794A19.749,19.749,0,0,1,9.3,59.283a8.436,8.436,0,0,1,1.314,4.255c0,1.1-.3,1.814-.906,2.1s-1.477.1-2.618-.634q1.793,4.4,3.585,8.374Q9.085,72.287,7.5,70.974ZM2.872,59.113Q4.054,60.374,5.235,61.5c1.642,1.549,2.465,1.461,2.465,0a4.48,4.48,0,0,0-.6-2.153,9.383,9.383,0,0,0-1.863-2.268Q4.053,55.96,2.872,54.71Zm81.7-2.328c1.827-.924,3.652-1.795,5.479-2.588,1.67-.724,2.943-.782,3.819-.221a3.382,3.382,0,0,1,1.314,3.079,6.614,6.614,0,0,1-.906,3.379,7.543,7.543,0,0,1-2.618,2.611q1.792,2.586,3.585,5.505-1.589.466-3.178,1.009c-1.12-1.828-2.241-3.548-3.361-5.175q-.632.265-1.263.539v6.352q-1.434.574-2.872,1.192Zm5.235.121q-1.182.51-2.363,1.058v4.768q1.179-.526,2.363-1.015a3.482,3.482,0,0,0,2.465-3.408,1.72,1.72,0,0,0-.6-1.546,1.121,1.121,0,0,0-.63-.168A3.239,3.239,0,0,0,89.807,56.906Zm-33.426-.368c1.827-.976,3.653-2,5.479-3.054,1.67-.963,2.944-1.3,3.82-1s1.314,1.112,1.314,2.447a6.756,6.756,0,0,1-.906,3.28,10.344,10.344,0,0,1-2.618,3.033c1.2,1.2,2.391,2.379,3.585,3.57q-1.588.946-3.177,1.88c-1.12-1.182-2.241-2.366-3.361-3.577q-.632.364-1.263.724v5.507q-1.434.8-2.872,1.572Zm5.235-.446q-1.182.686-2.363,1.353v4.422q1.182-.671,2.363-1.362a4.216,4.216,0,0,0,2.465-3.643q0-1.045-.6-1.275a.9.9,0,0,0-.324-.055A3.365,3.365,0,0,0,61.617,56.093ZM120.26,67.908c-1.12-2.608-2.241-5.142-3.361-7.581q-.632-.141-1.263-.255V66.82q-1.434-.239-2.872-.361V49.7a31.16,31.16,0,0,1,5.479,1.055,6.862,6.862,0,0,1,3.82,2.692,7.136,7.136,0,0,1,1.313,4.128,3.528,3.528,0,0,1-.906,2.668,3.267,3.267,0,0,1-2.618.719c1.2,2.608,2.391,5.314,3.585,8.088Q121.849,68.394,120.26,67.908Zm-4.624-10.142q1.182.219,2.363.53c1.643.44,2.464-.077,2.465-1.717a3.405,3.405,0,0,0-.6-2.018A3.253,3.253,0,0,0,118,53.345q-1.182-.324-2.363-.552Zm-15.571,8.591a5.433,5.433,0,0,1-2.505-2.5,9.015,9.015,0,0,1-.886-4.168,11.6,11.6,0,0,1,.886-4.55,9.623,9.623,0,0,1,2.495-3.538,7.265,7.265,0,0,1,3.729-1.773,5.414,5.414,0,0,1,4.356.993,6.327,6.327,0,0,1,2.22,3.91q-1.507-.038-3.015.051a3.279,3.279,0,0,0-1.354-1.658,3.177,3.177,0,0,0-2.19-.378,4.289,4.289,0,0,0-2.2,1.032,5.543,5.543,0,0,0-1.487,2.161,7.916,7.916,0,0,0-.53,2.964,5.364,5.364,0,0,0,1.211,3.859,3.658,3.658,0,0,0,3.31.961,4.308,4.308,0,0,0,2.659-1.374,5.826,5.826,0,0,0,1.434-3.113,40.827,40.827,0,0,0-4.868.467v-2.4a38.43,38.43,0,0,1,7.272-.482v3.251a9.149,9.149,0,0,1-1.191,3.141,7.8,7.8,0,0,1-2.322,2.429,7.47,7.47,0,0,1-3.29,1.207,6.452,6.452,0,0,1-3.734-.495ZM28.191,62.9V46.118a41.762,41.762,0,0,0,5.479-.21,4.613,4.613,0,0,1,3.819.943A4.683,4.683,0,0,1,38.8,50.436a6.316,6.316,0,0,1-.907,3.389A5.349,5.349,0,0,1,35.279,56q1.793,3.018,3.586,5.689-1.588.395-3.178.67-1.68-2.762-3.361-5.844-.631.051-1.262.082v6.284q-.864.043-1.73.043Q28.762,62.921,28.191,62.9Zm5.235-14q-1.179.12-2.362.173V54.3q1.179-.055,2.362-.183a2.572,2.572,0,0,0,2.464-2.9,2.527,2.527,0,0,0-.6-1.842,1.9,1.9,0,0,0-1.426-.5A4.309,4.309,0,0,0,33.426,48.9Zm-14.2,12.516A8.911,8.911,0,0,1,15.491,58.9,13.425,13.425,0,0,1,12.1,50.078a7.174,7.174,0,0,1,.886-3.807A4.093,4.093,0,0,1,15.481,44.4a6.868,6.868,0,0,1,3.729.168,9.182,9.182,0,0,1,4.357,2.542h0a8.711,8.711,0,0,1,2.22,4.5q-1.507-.15-3.015-.437a5.416,5.416,0,0,0-1.355-2.14,5.157,5.157,0,0,0-2.19-1.269,3.661,3.661,0,0,0-2.2-.061,2.553,2.553,0,0,0-1.487,1.3,5.5,5.5,0,0,0-.53,2.6,8.3,8.3,0,0,0,1.211,4.5,6.056,6.056,0,0,0,3.31,2.652,2.882,2.882,0,0,0,2.658-.3,3.851,3.851,0,0,0,1.437-2.606,32.482,32.482,0,0,1-4.868-1.233V52.26a33.1,33.1,0,0,0,7.272,1.52v3.21a6.986,6.986,0,0,1-1.192,2.832,4.638,4.638,0,0,1-2.322,1.718,5.105,5.105,0,0,1-3.289-.121Zm50.137-1.376a5.175,5.175,0,0,1-.886-3.261,11.534,11.534,0,0,1,.886-4.335,14.868,14.868,0,0,1,2.495-4.092,14.366,14.366,0,0,1,3.728-3.13A6.808,6.808,0,0,1,79.949,44a2.673,2.673,0,0,1,2.22,2.2q-1.507.821-3.015,1.683a1.537,1.537,0,0,0-1.355-.763,4.157,4.157,0,0,0-2.19.7,8.5,8.5,0,0,0-2.2,1.872,8.826,8.826,0,0,0-1.487,2.518,7.757,7.757,0,0,0-.53,2.8q0,2.261,1.211,2.8t3.31-.7a8.555,8.555,0,0,0,2.659-2.471,8.336,8.336,0,0,0,1.434-3.388c-1.622.916-3.245,1.864-4.868,2.829V52.028c2.422-1.442,4.848-2.846,7.272-4.163v2.779a12.23,12.23,0,0,1-1.191,3.319A14.842,14.842,0,0,1,78.9,57.23a14.161,14.161,0,0,1-3.29,2.628,8.022,8.022,0,0,1-3.737,1.272c-.076.006-.152.009-.228.009A2.916,2.916,0,0,1,69.367,60.043Zm-25.685-.667a4.036,4.036,0,0,1-2.505-2.043,8.262,8.262,0,0,1-.886-4.053,12.379,12.379,0,0,1,.886-4.665,11.145,11.145,0,0,1,2.5-3.793A9.772,9.772,0,0,1,47.4,42.5a5.911,5.911,0,0,1,4.359-.165,3.894,3.894,0,0,1,2.221,2.956q-1.508.693-3.015,1.335a2.161,2.161,0,0,0-1.354-1.207,3.378,3.378,0,0,0-2.19.169,5.8,5.8,0,0,0-2.2,1.434A6.867,6.867,0,0,0,43.732,49.4a8.507,8.507,0,0,0-.53,3.028q0,2.578,1.211,3.552c.807.647,1.912.694,3.31.118a6.316,6.316,0,0,0,2.659-2.138,7.831,7.831,0,0,0,1.437-3.424c-1.623.74-3.246,1.431-4.868,2.059V50.286c2.423-.917,4.847-1.971,7.271-3.116v3.01a12.1,12.1,0,0,1-1.191,3.4,12.653,12.653,0,0,1-2.322,3.156,10.123,10.123,0,0,1-3.29,2.212,6.794,6.794,0,0,1-2.581.577A4.351,4.351,0,0,1,43.681,59.375Zm91.6-.457a17.569,17.569,0,0,1-3.289-2.351,26.517,26.517,0,0,1-3.738-3.864,17.49,17.49,0,0,1-2.5-4.288,11.723,11.723,0,0,1-.887-4.362,5.052,5.052,0,0,1,.886-3.236,2.57,2.57,0,0,1,2.495-.9,7.628,7.628,0,0,1,3.729,1.989,21.178,21.178,0,0,1,6.577,11.48q-1.508-1.808-3.015-3.383a12.069,12.069,0,0,0-1.355-2.912,11.554,11.554,0,0,0-2.189-2.59,4.968,4.968,0,0,0-2.2-1.243,1.425,1.425,0,0,0-1.487.5,3.373,3.373,0,0,0-.53,2.1,8.957,8.957,0,0,0,1.211,4.421,15.025,15.025,0,0,0,3.31,3.963,6.11,6.11,0,0,0,2.658,1.59c.74.133,1.219-.2,1.437-1.05a55.413,55.413,0,0,0-4.868-4.722V48a59.464,59.464,0,0,1,7.272,7.493v2.77a1.557,1.557,0,0,1-1.192,1.227,1.709,1.709,0,0,1-.361.037A4.582,4.582,0,0,1,135.282,58.919ZM7.5,54.6c-1.12-2.869-2.241-5.82-3.361-8.815Q3.5,45.2,2.872,44.57v5.739Q1.436,48.817,0,47.12V32.739A57.354,57.354,0,0,0,5.479,37.6,14.624,14.624,0,0,1,9.3,41.658a8.65,8.65,0,0,1,1.314,4.452,2.747,2.747,0,0,1-.906,2.439c-.6.4-1.477.3-2.618-.347,1.2,3,2.391,5.945,3.585,8.782Q9.085,55.9,7.5,54.6ZM2.872,42.53Q4.054,43.68,5.235,44.7C6.877,46.119,7.7,45.916,7.7,44.334a4.517,4.517,0,0,0-.6-2.219,7.4,7.4,0,0,0-1.863-2.087q-1.182-.965-2.363-2.048Zm81.7-2.13c1.827-.935,3.652-1.813,5.479-2.614,1.67-.733,2.943-.844,3.819-.4a2.655,2.655,0,0,1,1.314,2.62,5.588,5.588,0,0,1-.906,3.028,8.224,8.224,0,0,1-2.618,2.514c1.194,1.434,2.391,2.95,3.585,4.566q-1.589.554-3.178,1.2C90.948,49.8,89.828,48.366,88.708,47q-.632.295-1.263.6v5.761q-1.434.683-2.872,1.42Zm5.235-.186q-1.182.528-2.363,1.1v4.307q1.179-.572,2.363-1.1c1.643-.733,2.465-1.785,2.465-3.214a1.352,1.352,0,0,0-.6-1.329,1.122,1.122,0,0,0-.521-.113A3.452,3.452,0,0,0,89.807,40.214ZM56.382,39.037c1.827-.82,3.653-1.679,5.479-2.563q2.505-1.211,3.82-.613a2.547,2.547,0,0,1,1.314,2.61,6.651,6.651,0,0,1-.906,3.276A9.84,9.84,0,0,1,63.47,44.7c1.2,1.318,2.391,2.577,3.585,3.8q-1.588.936-3.177,1.861c-1.12-1.253-2.241-2.546-3.361-3.9q-.632.34-1.263.675v5.854q-1.434.794-2.872,1.556Zm5.235.138q-1.182.594-2.363,1.172v4.694q1.182-.613,2.363-1.243a4,4,0,0,0,2.465-3.588c0-.719-.2-1.174-.6-1.373a1,1,0,0,0-.451-.1A3.349,3.349,0,0,0,61.617,39.175ZM120.26,49.348q-1.68-3.6-3.361-6.86-.632-.155-1.263-.282v5.845q-1.434-.285-2.872-.43V33.24a30.829,30.829,0,0,1,5.479,1.067,7.21,7.21,0,0,1,3.82,2.535,6.088,6.088,0,0,1,1.313,3.712,2.648,2.648,0,0,1-.906,2.267,3.477,3.477,0,0,1-2.618.412q1.793,3.547,3.585,7.473A32.8,32.8,0,0,0,120.26,49.348Zm-4.624-9.13q1.182.239,2.363.576c1.643.48,2.464.1,2.465-1.332a2.836,2.836,0,0,0-.6-1.79A3.506,3.506,0,0,0,118,36.522q-1.182-.336-2.363-.571Zm-15.571,7.6A4.688,4.688,0,0,1,97.56,45.8a6.739,6.739,0,0,1-.886-3.584A9.273,9.273,0,0,1,97.56,38.2a8.815,8.815,0,0,1,2.495-3.167,7.878,7.878,0,0,1,3.729-1.635,5.986,5.986,0,0,1,4.356.772,5.222,5.222,0,0,1,2.22,3.325q-1.507-.04-3.015.055a2.871,2.871,0,0,0-1.354-1.395,3.562,3.562,0,0,0-2.19-.271,4.708,4.708,0,0,0-2.2.956,5.07,5.07,0,0,0-1.487,1.923,6.2,6.2,0,0,0-.53,2.592A4.063,4.063,0,0,0,100.8,44.64a3.978,3.978,0,0,0,3.309.677,4.781,4.781,0,0,0,4.094-3.961,37.114,37.114,0,0,0-4.868.517V39.809a35.484,35.484,0,0,1,7.272-.521v2.789a7.254,7.254,0,0,1-1.191,2.7,7.588,7.588,0,0,1-2.322,2.119,8.929,8.929,0,0,1-3.29,1.148,7.516,7.516,0,0,1-3.735-.229Zm-30.7-4.069a5.332,5.332,0,0,1-.886-3.306,11.119,11.119,0,0,1,.886-4.292,12.929,12.929,0,0,1,2.495-3.865,12.558,12.558,0,0,1,3.729-2.758,7.04,7.04,0,0,1,4.358-.906,2.738,2.738,0,0,1,2.22,2.113q-1.507.731-3.015,1.5a1.641,1.641,0,0,0-1.355-.768,4.193,4.193,0,0,0-2.19.564,7.661,7.661,0,0,0-2.2,1.683,7.827,7.827,0,0,0-1.487,2.378,7.324,7.324,0,0,0-.53,2.737c0,1.489.4,2.422,1.211,2.79s1.912.14,3.31-.653a8.606,8.606,0,0,0,2.659-2.366A7.689,7.689,0,0,0,80.009,35.4q-2.433,1.279-4.868,2.63V36.049c2.422-1.31,4.848-2.585,7.272-3.781v2.561a11.08,11.08,0,0,1-1.191,3.09,15.207,15.207,0,0,1-5.612,5.676,8.056,8.056,0,0,1-3.737,1.266q-.108.008-.215.008A2.9,2.9,0,0,1,69.367,43.745Zm-41.176-.02V24.536q2.739.048,5.479-.128a4.37,4.37,0,0,1,3.819,1.353A6.18,6.18,0,0,1,38.8,29.941,7.434,7.434,0,0,1,37.9,33.7a5.129,5.129,0,0,1-2.618,2.279q1.793,3.555,3.586,6.755-1.588.323-3.178.548-1.68-3.268-3.361-6.853-.631.038-1.262.061v7.219q-.86.035-1.721.035Q28.767,43.74,28.191,43.725Zm5.235-15.932q-1.179.078-2.362.113v5.956q1.179-.039,2.362-.131c1.643-.135,2.464-1.207,2.464-3.156a3.308,3.308,0,0,0-.6-2.136,1.951,1.951,0,0,0-1.61-.655Q33.557,27.785,33.426,27.793ZM135.282,42.686a18.235,18.235,0,0,1-3.289-2.354,29.776,29.776,0,0,1-3.738-3.742,17.143,17.143,0,0,1-2.5-3.948,9.495,9.495,0,0,1-.886-3.863,4.007,4.007,0,0,1,.886-2.822,2.87,2.87,0,0,1,2.495-.834,7.8,7.8,0,0,1,3.729,1.619,16.249,16.249,0,0,1,4.357,4.757,16.528,16.528,0,0,1,2.22,5.62q-1.508-1.608-3.015-3.009a10.143,10.143,0,0,0-1.355-2.68,9.992,9.992,0,0,0-2.189-2.291,5,5,0,0,0-2.2-1.055,1.561,1.561,0,0,0-1.487.473,2.774,2.774,0,0,0-.53,1.872,7.653,7.653,0,0,0,1.211,4,15.387,15.387,0,0,0,3.31,3.746,6.178,6.178,0,0,0,2.658,1.543c.74.127,1.219-.205,1.437-1.044a53.784,53.784,0,0,0-4.868-4.39v-1.9A56.869,56.869,0,0,1,138.8,39.2v2.77a1.62,1.62,0,0,1-1.192,1.278,1.681,1.681,0,0,1-.389.043A4.486,4.486,0,0,1,135.282,42.686ZM19.229,42.553a7.976,7.976,0,0,1-3.738-2.369,12.438,12.438,0,0,1-2.5-4.177,14.352,14.352,0,0,1-.886-5.019,9.834,9.834,0,0,1,.886-4.4,5.6,5.6,0,0,1,2.495-2.614,5.817,5.817,0,0,1,3.729-.469,7.207,7.207,0,0,1,4.359,2.375h0a9.661,9.661,0,0,1,2.22,4.976q-1.507-.1-3.015-.3a5.48,5.48,0,0,0-1.355-2.295A4.135,4.135,0,0,0,19.229,27.1a3.229,3.229,0,0,0-2.2.276A3.418,3.418,0,0,0,15.543,29.1a7.458,7.458,0,0,0-.53,3,9.1,9.1,0,0,0,1.211,4.832,5.386,5.386,0,0,0,3.31,2.559,2.77,2.77,0,0,0,2.658-.6,5,5,0,0,0,1.437-3.082,41.915,41.915,0,0,1-4.868-.917V32.231a44.892,44.892,0,0,0,7.272,1.084v3.67a9.075,9.075,0,0,1-1.192,3.3,5.286,5.286,0,0,1-2.322,2.112,4.722,4.722,0,0,1-3.289.159Zm24.452-1.984a4.88,4.88,0,0,1-2.505-2.582,11.019,11.019,0,0,1-.886-4.68,14.623,14.623,0,0,1,.886-5.159,10.369,10.369,0,0,1,2.5-3.913A7.481,7.481,0,0,1,47.4,22.259a5.522,5.522,0,0,1,4.36.627,5.386,5.386,0,0,1,2.221,3.628q-1.508.478-3.015.917a2.883,2.883,0,0,0-1.354-1.562,3.068,3.068,0,0,0-2.19-.188,4.555,4.555,0,0,0-2.2,1.243,6.427,6.427,0,0,0-1.488,2.446A9.93,9.93,0,0,0,43.2,32.7a5.826,5.826,0,0,0,1.211,4.144,2.982,2.982,0,0,0,3.309.56,5.421,5.421,0,0,0,2.659-2,7.832,7.832,0,0,0,1.437-3.538c-1.623.55-3.246,1.064-4.868,1.53V30.821c2.423-.655,4.847-1.408,7.271-2.226v3.261a12.306,12.306,0,0,1-1.191,3.515,11.727,11.727,0,0,1-2.322,3.13,8.772,8.772,0,0,1-3.29,2.03,6.388,6.388,0,0,1-2.044.369A4.331,4.331,0,0,1,43.681,40.569ZM7.5,36.941c-1.12-2.848-2.241-5.71-3.361-8.528q-.632-.441-1.263-.91v5.929Q1.436,32.211,0,30.823V16.443a58.154,58.154,0,0,0,5.479,2.941A8.718,8.718,0,0,1,9.3,22.5a8.083,8.083,0,0,1,1.314,4.485,3.9,3.9,0,0,1-.906,2.887,2.4,2.4,0,0,1-2.618.293c1.2,2.905,2.391,5.83,3.585,8.72Q9.085,38.006,7.5,36.941ZM2.872,25.4q1.182.826,2.363,1.562c1.642,1.024,2.465.6,2.465-1.108a4.112,4.112,0,0,0-.6-2.2,4.638,4.638,0,0,0-1.863-1.623Q4.053,21.4,2.872,20.7Zm81.7.1c1.827-.785,3.652-1.521,5.479-2.194a5.31,5.31,0,0,1,3.819-.315,2.207,2.207,0,0,1,1.314,2.242,4.424,4.424,0,0,1-.906,2.62,8.258,8.258,0,0,1-2.618,2.243c1.194,1.229,2.391,2.508,3.585,3.861q-1.589.549-3.178,1.19c-1.12-1.285-2.241-2.511-3.361-3.7q-.632.275-1.263.56v5.17q-1.434.677-2.872,1.406Zm5.235-.066q-1.182.456-2.363.949v3.845q1.179-.522,2.363-1.007c1.643-.671,2.465-1.6,2.465-2.843a1.13,1.13,0,0,0-.6-1.154,1.268,1.268,0,0,0-.525-.1A3.879,3.879,0,0,0,89.807,25.426ZM56.382,20.253q2.741-.743,5.479-1.55c1.67-.487,2.944-.423,3.82.155a3.209,3.209,0,0,1,1.314,2.908,6.061,6.061,0,0,1-.906,3.179,8.079,8.079,0,0,1-2.618,2.614c1.2,1.557,2.391,3.015,3.585,4.4q-1.588.764-3.177,1.521c-1.12-1.434-2.241-2.949-3.361-4.56q-.632.255-1.263.5v6.2q-1.434.65-2.872,1.273Zm5.235,1.223q-1.182.386-2.363.761v4.968q1.182-.441,2.363-.895a3.361,3.361,0,0,0,2.465-3.286,1.749,1.749,0,0,0-.6-1.533,1.331,1.331,0,0,0-.786-.217A3.553,3.553,0,0,0,61.617,21.476ZM120.26,33.194q-1.68-3.179-3.361-5.963-.632-.145-1.263-.263v4.942q-1.434-.282-2.872-.426v-12a36.27,36.27,0,0,1,5.479.895,7.313,7.313,0,0,1,3.82,2.142,4.77,4.77,0,0,1,1.313,3.192,2.1,2.1,0,0,1-.906,1.938,3.909,3.909,0,0,1-2.618.284q1.793,3.075,3.585,6.6A33.047,33.047,0,0,0,120.26,33.194Zm-4.624-7.9q1.182.218,2.363.525c1.643.439,2.464.134,2.465-1.084a2.194,2.194,0,0,0-.6-1.525A3.651,3.651,0,0,0,118,22.229q-1.182-.29-2.363-.495Zm-15.571,6.491a4.414,4.414,0,0,1-2.505-1.645,5.036,5.036,0,0,1-.886-3.048,6.965,6.965,0,0,1,.886-3.431,7.7,7.7,0,0,1,2.495-2.678,8.668,8.668,0,0,1,3.729-1.366,7.06,7.06,0,0,1,4.356.624,4.351,4.351,0,0,1,2.22,2.744c-1-.025-2.01-.007-3.015.048a2.63,2.63,0,0,0-1.354-1.147,4.223,4.223,0,0,0-2.19-.214,5.209,5.209,0,0,0-2.2.812,4.465,4.465,0,0,0-1.487,1.626,4.58,4.58,0,0,0-.53,2.2,3.113,3.113,0,0,0,1.211,2.757,4.528,4.528,0,0,0,3.31.5,5.418,5.418,0,0,0,2.659-1.1A3.974,3.974,0,0,0,108.2,26.2a39.7,39.7,0,0,0-4.868.481v-1.73a39.023,39.023,0,0,1,7.272-.473V26.8a5.659,5.659,0,0,1-1.191,2.26,7.449,7.449,0,0,1-2.322,1.8,10.577,10.577,0,0,1-3.29,1.024,8.928,8.928,0,0,1-3.733-.093ZM71.871,28.844a3.227,3.227,0,0,1-2.505-1.4A5.922,5.922,0,0,1,68.48,24a10.084,10.084,0,0,1,.886-4.158,9.649,9.649,0,0,1,6.223-5.4,7.359,7.359,0,0,1,4.36-.162,3.211,3.211,0,0,1,2.22,2.231q-1.507.5-3.015,1.027a2,2,0,0,0-1.355-.9,4.15,4.15,0,0,0-2.19.208,6.026,6.026,0,0,0-3.687,3.362,6.519,6.519,0,0,0-.53,2.617c0,1.471.4,2.45,1.211,2.9s1.912.351,3.31-.277a7.512,7.512,0,0,0,2.659-2,6.338,6.338,0,0,0,1.434-2.848q-2.433.949-4.868,1.955V20.652c2.422-.935,4.848-1.846,7.272-2.7v2.343a9.084,9.084,0,0,1-1.191,2.75A12.967,12.967,0,0,1,78.9,25.77a13.442,13.442,0,0,1-3.29,2.188,8.016,8.016,0,0,1-3.355.9Q72.059,28.86,71.871,28.844Zm63.411-1.725a14.1,14.1,0,0,1-3.289-1.828,25.761,25.761,0,0,1-3.738-3.126,14.369,14.369,0,0,1-2.5-3.334,7.01,7.01,0,0,1-.886-3.277,3.4,3.4,0,0,1,.886-2.493,3.736,3.736,0,0,1,2.495-1.035,7.991,7.991,0,0,1,3.729.753,10.983,10.983,0,0,1,4.359,3.321l0,0a11.176,11.176,0,0,1,2.22,4.811q-1.508-1.1-3.015-2.066a6.819,6.819,0,0,0-1.355-2.215,7.1,7.1,0,0,0-2.189-1.651,4.76,4.76,0,0,0-2.2-.564,1.972,1.972,0,0,0-1.487.629,2.48,2.48,0,0,0-.53,1.708,5.819,5.819,0,0,0,1.211,3.442,12.626,12.626,0,0,0,3.31,3.078,5.062,5.062,0,0,0,2.658,1.069c.74-.006,1.219-.428,1.437-1.293a51.907,51.907,0,0,0-4.868-3.263V18.04A53.925,53.925,0,0,1,138.8,22.9v2.77a2.2,2.2,0,0,1-1.192,1.565,2.044,2.044,0,0,1-.856.17A4.6,4.6,0,0,1,135.282,27.119ZM84.573,12.061q2.741-.712,5.479-1.327a6.43,6.43,0,0,1,3.819.038,1.974,1.974,0,0,1,1.314,1.944,3.213,3.213,0,0,1-.906,2.156,7.683,7.683,0,0,1-2.618,1.8c1.194,1.109,2.391,2.229,3.585,3.39q-1.589.45-3.178.973c-1.12-1.129-2.241-2.234-3.361-3.341q-.632.205-1.263.418v4.58q-1.434.554-2.872,1.148Zm5.235.48q-1.182.3-2.363.617v3.385q1.179-.375,2.363-.724c1.643-.485,2.465-1.24,2.465-2.3a1.015,1.015,0,0,0-.6-1.02,1.736,1.736,0,0,0-.713-.128A4.833,4.833,0,0,0,89.807,12.54ZM28.191,21.821V.23H33.67A4.4,4.4,0,0,1,37.489,2.1,8.171,8.171,0,0,1,38.8,6.932a8.44,8.44,0,0,1-.907,4.083,4.773,4.773,0,0,1-2.618,2.3q1.793,4.142,3.586,7.949-1.588.181-3.178.309-1.68-3.823-3.361-7.939-.631.016-1.262.025v8.154q-.874.019-1.749.019Q28.753,21.829,28.191,21.821ZM33.426,4q-1.179.012-2.362.018V10.7q1.179-.015,2.362-.047,2.465-.075,2.464-3.35a4.282,4.282,0,0,0-.6-2.444,2.075,2.075,0,0,0-1.69-.872Q33.514,3.991,33.426,4Zm-14.2,17.245a6.768,6.768,0,0,1-3.738-1.955,10.762,10.762,0,0,1-2.5-4,14.956,14.956,0,0,1-.886-5.246,13.669,13.669,0,0,1,.886-5.084A8.721,8.721,0,0,1,15.481,1.37,5.689,5.689,0,0,1,19.21,0a5.486,5.486,0,0,1,4.359,2.011h0a10.417,10.417,0,0,1,2.22,5.392q-1.507-.027-3.015-.08a5.323,5.323,0,0,0-1.355-2.395,3.272,3.272,0,0,0-4.389-.184A5.066,5.066,0,0,0,15.542,7a10.111,10.111,0,0,0-.529,3.447,9.424,9.424,0,0,0,1.211,5.068,4.487,4.487,0,0,0,3.311,2.246,2.916,2.916,0,0,0,2.658-1.024,6.6,6.6,0,0,0,1.437-3.609Q21.194,13,18.761,12.75V9.782q3.636.292,7.272.37V14.28a11.716,11.716,0,0,1-1.192,3.788,6.465,6.465,0,0,1-2.322,2.579,4.7,4.7,0,0,1-3.289.6Zm101.031-1.8c-1.12-1.77-2.241-3.4-3.361-4.894q-.632-.107-1.263-.2v4.04q-1.434-.231-2.872-.349V8.425c1.827.1,3.652.272,5.479.542a7.477,7.477,0,0,1,3.82,1.512,3.349,3.349,0,0,1,1.313,2.57,1.794,1.794,0,0,1-.906,1.683,4.494,4.494,0,0,1-2.618.332c1.2,1.664,2.391,3.484,3.585,5.474Q121.849,19.91,120.26,19.442ZM115.636,13q1.182.156,2.363.377c1.643.319,2.464.032,2.465-.974a1.551,1.551,0,0,0-.6-1.221A3.816,3.816,0,0,0,118,10.465q-1.182-.189-2.363-.322ZM43.681,19.5a6.5,6.5,0,0,1-2.505-3.257,14.561,14.561,0,0,1-.886-5.351,16.686,16.686,0,0,1,.886-5.61,9.063,9.063,0,0,1,2.5-3.895A5.486,5.486,0,0,1,47.4.006a6,6,0,0,1,4.36,1.749,8.044,8.044,0,0,1,2.221,4.489q-1.508.128-3.015.245A4.272,4.272,0,0,0,49.61,4.466a3.182,3.182,0,0,0-2.19-.708,3.4,3.4,0,0,0-2.2.9,5.587,5.587,0,0,0-1.488,2.416,11.184,11.184,0,0,0-.529,3.592,7.879,7.879,0,0,0,1.211,4.805A3.2,3.2,0,0,0,47.724,16.7a4.278,4.278,0,0,0,2.659-1.654A7.263,7.263,0,0,0,51.819,11.5q-2.435.34-4.868.63V9.3q3.636-.335,7.271-.759v3.513a11.608,11.608,0,0,1-1.191,3.526A9.743,9.743,0,0,1,50.709,18.5a7.086,7.086,0,0,1-3.29,1.6,5.006,5.006,0,0,1-3.737-.595ZM7.5,17.986c-1.12-2.67-2.241-5.268-3.361-7.72q-.632-.184-1.263-.383V16Q1.436,15.315,0,14.53V.148L5.479.18A4.566,4.566,0,0,1,9.3,1.81a6.87,6.87,0,0,1,1.314,4.358,5.828,5.828,0,0,1-.906,3.447A3.089,3.089,0,0,1,7.089,10.9c1.2,2.633,2.391,5.387,3.585,8.189Q9.085,18.587,7.5,17.986ZM2.872,7.711Q4.054,8,5.235,8.264C6.877,8.633,7.7,7.879,7.7,6.047a3.357,3.357,0,0,0-.6-2.1,2.465,2.465,0,0,0-1.863-.875q-1.182-.1-2.363-.213Zm97.194,10.572a4.541,4.541,0,0,1-2.505-1.395,3.789,3.789,0,0,1-.886-2.558,4.8,4.8,0,0,1,.886-2.8,6.478,6.478,0,0,1,2.495-2.074,10.1,10.1,0,0,1,3.729-.969,9.218,9.218,0,0,1,4.356.555,3.72,3.72,0,0,1,2.22,2.164q-1.507-.026-3.015.032a2.594,2.594,0,0,0-1.354-.923,5.385,5.385,0,0,0-2.19-.2,6.012,6.012,0,0,0-2.2.6,3.834,3.834,0,0,0-1.487,1.273,3.113,3.113,0,0,0-.53,1.777A2.438,2.438,0,0,0,100.8,16.04a5.377,5.377,0,0,0,3.31.434,6.134,6.134,0,0,0,2.659-.885,3.216,3.216,0,0,0,1.434-1.826c-1.622.042-3.245.166-4.868.358v-1.4a54.6,54.6,0,0,1,7.272-.338V14.25a4.381,4.381,0,0,1-1.191,1.824,7.512,7.512,0,0,1-2.322,1.459,12.411,12.411,0,0,1-3.29.836,10.628,10.628,0,0,1-3.734-.085ZM56.382.187,61.861.171a5.27,5.27,0,0,1,3.82,1.307,4.423,4.423,0,0,1,1.314,3.338,5.079,5.079,0,0,1-.906,2.99A5.749,5.749,0,0,1,63.47,9.813c1.2,1.916,2.391,3.693,3.585,5.355q-1.588.433-3.177.86c-1.12-1.731-2.241-3.576-3.361-5.55l-1.263.211v6.553q-1.434.366-2.872.719Zm5.235,2.8-2.363.121V8.35q1.182-.156,2.363-.316a2.521,2.521,0,0,0,2.465-2.741,2.393,2.393,0,0,0-.6-1.753,2.2,2.2,0,0,0-1.631-.558Q61.736,2.982,61.617,2.988ZM71.872,13.082a4.191,4.191,0,0,1-2.505-1.937,7.034,7.034,0,0,1-.887-3.67,8.542,8.542,0,0,1,.887-3.932A6.247,6.247,0,0,1,71.861.9,7.346,7.346,0,0,1,75.589.007a8.891,8.891,0,0,1,4.36,1.007A4.371,4.371,0,0,1,82.17,3.57q-1.507.134-3.015.274A2.853,2.853,0,0,0,77.8,2.673a5.058,5.058,0,0,0-4.389.28A3.964,3.964,0,0,0,71.924,4.6a5.414,5.414,0,0,0-.53,2.442,3.752,3.752,0,0,0,1.211,3.141,3.83,3.83,0,0,0,3.311.432,5.851,5.851,0,0,0,2.659-1.373,4.564,4.564,0,0,0,1.434-2.37q-2.433.391-4.868.805V5.839q3.636-.478,7.272-.921V7.044a6.56,6.56,0,0,1-1.191,2.3A9.827,9.827,0,0,1,78.9,11.471a10.9,10.9,0,0,1-3.29,1.484,8.685,8.685,0,0,1-2.243.328A5.35,5.35,0,0,1,71.872,13.082Zm63.41-.869a9.179,9.179,0,0,1-3.289-.776,17.365,17.365,0,0,1-3.738-2.014,10.143,10.143,0,0,1-2.5-2.448,4.543,4.543,0,0,1-.886-2.606,3.149,3.149,0,0,1,.886-2.25A6.134,6.134,0,0,1,128.245.611a11.185,11.185,0,0,1,3.728-.606,7.186,7.186,0,0,1,4.359,1.164,5.728,5.728,0,0,1,2.22,3.574q-1.508-.3-3.015-.553a3.49,3.49,0,0,0-1.355-1.521A4.743,4.743,0,0,0,131.993,2a5.559,5.559,0,0,0-2.2.233,3.116,3.116,0,0,0-1.487.969,2.45,2.45,0,0,0-.53,1.607,3.783,3.783,0,0,0,1.211,2.734A8.4,8.4,0,0,0,132.3,9.5a4.01,4.01,0,0,0,2.658.17,2.29,2.29,0,0,0,1.437-1.8q-2.435-.754-4.868-1.343V4.948q3.636.686,7.272,1.657v2.77a3.814,3.814,0,0,1-1.192,2.09,3.414,3.414,0,0,1-2.139.753Q135.374,12.219,135.282,12.214ZM84.573.1,90.052.09a8.929,8.929,0,0,1,3.819.656,1.925,1.925,0,0,1,1.314,1.73,2.093,2.093,0,0,1-.906,1.637,6.913,6.913,0,0,1-2.618,1.177c1.194,1.073,2.391,2.112,3.585,3.152q-1.589.253-3.178.55c-1.12-1.054-2.241-2.119-3.361-3.229l-1.263.176V9.929q-1.434.313-2.872.649Zm5.235,1.459q-1.182.048-2.363.1v2.92q1.179-.132,2.363-.255c1.643-.174,2.465-.7,2.465-1.565a1,1,0,0,0-.6-.929,3.843,3.843,0,0,0-1.863-.27ZM120.26,8.094A46.588,46.588,0,0,0,116.9,4.445q-.632-.045-1.263-.083V7.5q-1.434-.131-2.872-.2V.067q2.741,0,5.479.006a8.621,8.621,0,0,1,3.82.647,2.06,2.06,0,0,1,1.313,1.843,1.684,1.684,0,0,1-.906,1.5,5.336,5.336,0,0,1-2.618.561,46.354,46.354,0,0,1,3.585,4.09Q121.849,8.358,120.26,8.094ZM115.636,3.33q1.182.055,2.363.134c1.643.117,2.464-.213,2.465-1a.979.979,0,0,0-.6-.882A4.359,4.359,0,0,0,118,1.23q-1.182-.029-2.363-.051ZM100.066,7.3A5.072,5.072,0,0,1,97.56,6.038a2.976,2.976,0,0,1,0-4.239A5.539,5.539,0,0,1,100.055.446,13.7,13.7,0,0,1,103.783,0a14.451,14.451,0,0,1,4.357.557,3.433,3.433,0,0,1,2.22,1.586q-1.507-.007-3.015.009a2.868,2.868,0,0,0-1.354-.714,8.853,8.853,0,0,0-4.39.073,3.364,3.364,0,0,0-1.487.861,1.887,1.887,0,0,0-.53,1.335A1.989,1.989,0,0,0,100.8,5.568a6.538,6.538,0,0,0,3.31.473,7.133,7.133,0,0,0,2.659-.618A2.641,2.641,0,0,0,108.2,4.055q-2.433.027-4.868.148V3.137Q106.967,3,110.6,3.021v1.4a3.433,3.433,0,0,1-1.189,1.393,7.9,7.9,0,0,1-2.322,1.106,14.43,14.43,0,0,1-3.29.585q-.591.056-1.185.056A12.51,12.51,0,0,1,100.066,7.3Z" transform="translate(0 0)" fill="#455065"/></g></g></g></svg>